<svg width="491" height="491" viewBox="0 0 491 491" fill="none" xmlns="http://www.w3.org/2000/svg">
<circle cx="245.5" cy="245.5" r="245.5" fill="#253E7E"/>
<path d="M241.606 237.708H232.014V250.514C234.003 252.35 235.303 253.665 235.915 254.461C236.527 255.226 237.231 256.633 238.026 258.684H231.922C231.922 255.165 230.927 252.518 228.938 250.743C226.95 248.968 224.395 248.081 221.273 248.081C217.663 248.081 214.373 249.06 211.405 251.019C208.468 252.977 206.158 255.455 204.475 258.454C202.792 261.422 201.95 264.283 201.95 267.037C201.95 268.751 202.333 270.357 203.098 271.856C203.893 273.325 205.163 274.519 206.907 275.437C208.682 276.354 210.946 276.813 213.7 276.813C217.219 276.813 219.927 276.232 221.824 275.069C223.752 273.876 224.991 272.897 225.542 272.132H235.318C234.951 273.631 233.926 275.146 232.243 276.676C230.56 278.206 228.525 279.476 226.139 280.485C223.783 281.495 221.61 282 219.621 282C215.766 282 211.864 280.929 207.917 278.787C203.97 276.615 200.742 273.861 198.232 270.525C195.754 267.19 194.515 263.901 194.515 260.657C194.515 258.821 195.341 256.45 196.993 253.543C198.676 250.605 201.032 248.05 204.062 245.878C207.091 243.705 210.549 242.619 214.435 242.619C216.944 242.619 219.086 242.94 220.86 243.583C222.635 244.195 223.905 244.776 224.67 245.327V237.708H192.266V232.2H241.606V237.708ZM291.314 237.708H254.274V251.523C254.948 250.789 255.713 249.978 256.569 249.091C257.426 248.203 258.405 247.362 259.507 246.566C260.608 245.771 261.955 245.082 263.546 244.501C265.137 243.92 266.927 243.629 268.916 243.629C272.68 243.629 276 244.669 278.876 246.75C281.783 248.8 284.047 251.432 285.669 254.645C287.291 257.857 288.102 261.024 288.102 264.146C288.102 267.389 287.321 270.388 285.761 273.142C284.2 275.896 282.64 278.037 281.079 279.567C279.519 281.097 278.356 282.153 277.591 282.734L270.063 278.236C270.492 277.624 271.41 276.599 272.817 275.161C274.225 273.723 275.464 272.3 276.535 270.893C277.606 269.485 278.555 267.726 279.381 265.614C280.207 263.503 280.635 261.132 280.666 258.5C280.666 255.287 279.901 252.686 278.371 250.697C276.841 248.678 274.73 247.668 272.037 247.668C269.528 247.76 266.851 248.662 264.005 250.376C261.19 252.09 258.818 254.231 256.891 256.802C254.963 259.372 253.999 261.851 253.999 264.237V282.459L245.416 277.869V237.708H240.367V232.2H245.416C245.416 227.243 244.712 222.806 243.305 218.89C241.897 214.942 240.26 211.699 238.394 209.159C236.527 206.619 234.921 204.738 233.574 203.514C232.197 202.29 231.203 201.479 230.591 201.081L239.862 200.989C242.096 202.213 244.33 204.462 246.563 207.736C248.828 210.98 250.679 214.82 252.117 219.257C253.555 223.663 254.274 227.978 254.274 232.2H291.314V237.708ZM306.369 227.381C306.247 227.503 305.895 227.564 305.313 227.564C304.824 227.564 304.396 227.503 304.028 227.381C301.825 223.066 300.418 220.435 299.806 219.486C299.132 218.568 298.276 217.972 297.235 217.696C296.226 217.421 295.262 217.161 294.344 216.916C293.456 216.641 292.737 216.029 292.187 215.08C292.064 214.896 291.835 214.193 291.498 212.969C291.161 211.714 290.504 210.261 289.524 208.608V207.553H291.314C294.895 208.654 297.434 209.664 298.934 210.582C300.433 211.469 301.382 212.341 301.779 213.198C302.208 214.024 302.804 215.753 303.569 218.385C304.334 220.986 305.237 223.326 306.277 225.407C306.308 225.683 306.323 225.943 306.323 226.188C306.354 226.402 306.369 226.799 306.369 227.381ZM309.077 237.708H290.396V232.2H309.077V237.708ZM303.845 283.056L296.134 278.787V243.354H303.845V283.056ZM349.376 237.708H326.151V274.656C326.151 275.727 326.519 276.768 327.253 277.777C328.018 278.787 328.844 279.292 329.731 279.292C334.291 279.292 336.57 274.58 336.57 265.155L345.796 270.434C344.297 273.769 342.246 276.553 339.646 278.787C337.075 280.99 333.679 282.092 329.456 282.092C327.345 282.061 325.402 281.51 323.627 280.439C321.883 279.338 320.491 277.946 319.45 276.263C318.41 274.549 317.89 272.851 317.89 271.168V237.708H308.297V232.2H317.89V216.778L326.151 222.516V232.2H349.376V237.708ZM389.399 237.708H366.175V274.656C366.175 275.727 366.542 276.768 367.276 277.777C368.041 278.787 368.868 279.292 369.755 279.292C374.314 279.292 376.594 274.58 376.594 265.155L385.819 270.434C384.32 273.769 382.27 276.553 379.669 278.787C377.099 280.99 373.702 282.092 369.479 282.092C367.368 282.061 365.425 281.51 363.65 280.439C361.906 279.338 360.514 277.946 359.474 276.263C358.433 274.549 357.913 272.851 357.913 271.168V237.708H348.32V232.2H357.913V216.778L366.175 222.516V232.2H389.399V237.708ZM439.199 237.708H402.159V251.523C402.832 250.789 403.597 249.978 404.454 249.091C405.311 248.203 406.29 247.362 407.392 246.566C408.493 245.771 409.84 245.082 411.431 244.501C413.022 243.92 414.812 243.629 416.801 243.629C420.564 243.629 423.884 244.669 426.761 246.75C429.668 248.8 431.932 251.432 433.554 254.645C435.175 257.857 435.986 261.024 435.986 264.146C435.986 267.389 435.206 270.388 433.646 273.142C432.085 275.896 430.524 278.037 428.964 279.567C427.403 281.097 426.241 282.153 425.476 282.734L417.948 278.236C418.377 277.624 419.295 276.599 420.702 275.161C422.11 273.723 423.349 272.3 424.42 270.893C425.491 269.485 426.439 267.726 427.266 265.614C428.092 263.503 428.52 261.132 428.551 258.5C428.551 255.287 427.786 252.686 426.256 250.697C424.726 248.678 422.615 247.668 419.922 247.668C417.413 247.76 414.735 248.662 411.89 250.376C409.075 252.09 406.703 254.231 404.775 256.802C402.848 259.372 401.884 261.851 401.884 264.237V282.459L393.301 277.869V237.708H388.252V232.2H393.301C393.301 227.243 392.597 222.806 391.189 218.89C389.782 214.942 388.145 211.699 386.278 209.159C384.412 206.619 382.805 204.738 381.459 203.514C380.082 202.29 379.088 201.479 378.476 201.081L387.747 200.989C389.981 202.213 392.215 204.462 394.448 207.736C396.713 210.98 398.564 214.82 400.002 219.257C401.44 223.663 402.159 227.978 402.159 232.2H439.199V237.708ZM454.254 227.381C454.132 227.503 453.78 227.564 453.198 227.564C452.709 227.564 452.28 227.503 451.913 227.381C449.71 223.066 448.302 220.435 447.69 219.486C447.017 218.568 446.16 217.972 445.12 217.696C444.11 217.421 443.146 217.161 442.229 216.916C441.341 216.641 440.622 216.029 440.071 215.08C439.949 214.896 439.719 214.193 439.383 212.969C439.046 211.714 438.388 210.261 437.409 208.608V207.553H439.199C442.779 208.654 445.319 209.664 446.818 210.582C448.318 211.469 449.266 212.341 449.664 213.198C450.092 214.024 450.689 215.753 451.454 218.385C452.219 220.986 453.122 223.326 454.162 225.407C454.193 225.683 454.208 225.943 454.208 226.188C454.239 226.402 454.254 226.799 454.254 227.381ZM456.962 237.708H438.281V232.2H456.962V237.708ZM451.729 283.056L444.019 278.787V243.354H451.729V283.056Z" fill="white"/>
<path fill-rule="evenodd" clip-rule="evenodd" d="M175.985 229.091C177 230.613 177 232.137 177 233.659V271.724C177 273.755 176.493 275.277 175.985 276.8L155.176 256.499C153.146 253.961 149.593 257.514 152.131 260.051L172.432 280.353C170.91 281.875 168.879 282.383 166.341 282.383H103.914C101.376 282.383 99.3459 281.876 97.8228 280.353L118.124 260.051C120.661 257.514 117.109 253.96 114.571 256.499L94.2702 276.8C93.2551 275.278 92.7479 273.754 92.7479 271.724V233.659C92.7479 232.137 93.2551 230.613 94.2702 229.091L125.738 255.484C130.813 259.544 138.934 259.544 144.009 255.484L175.984 229.091H175.985Z" fill="white"/>
<path fill-rule="evenodd" clip-rule="evenodd" d="M103.913 223H166.34C168.878 223 170.908 224.015 172.938 225.03L140.964 251.423C137.918 254.468 132.336 253.96 129.29 251.423L97.3158 225.03C99.3461 224.015 101.376 223 103.914 223H103.913Z" fill="white"/>
<path d="M57.7278 268.68C55.1904 268.68 55.1904 273.248 57.7278 273.248H84.1202C87.1658 273.248 87.1658 268.68 84.1202 268.68H57.7278Z" fill="white"/>
<path d="M60.2652 255.991C57.2197 255.991 57.2197 260.051 60.2652 260.051H84.1203C87.1658 260.051 87.1658 255.991 84.1203 255.991H60.2652Z" fill="white"/>
<path d="M51.1293 260.051C54.1748 260.051 54.1748 255.991 51.1293 255.991H45.0384C41.9929 255.991 41.9929 260.051 45.0384 260.051H51.1293Z" fill="white"/>
<path d="M35.9031 245.332C33.3656 245.332 33.3656 249.392 35.9031 249.392H84.1202C87.1658 249.392 87.1658 245.332 84.1202 245.332H35.9031Z" fill="white"/>
<path d="M55.1883 232.135C52.1428 232.135 52.1428 236.703 55.1883 236.703H60.7713C63.3087 236.703 63.3087 232.135 60.7713 232.135H55.1883Z" fill="white"/>
<path d="M84.1203 236.703C87.1658 236.703 87.1658 232.135 84.1203 232.135H68.3868C65.3413 232.135 65.3413 236.703 68.3868 236.703H84.1203Z" fill="white"/>
</svg>
