<svg width="28" height="28" viewBox="0 0 28 28" fill="none" xmlns="http://www.w3.org/2000/svg">
<path d="M27.7277 11.2581H26.6V11.2H14V16.8H21.9121C20.7578 20.0599 17.6561 22.4 14 22.4C9.3611 22.4 5.6 18.6389 5.6 14C5.6 9.3611 9.3611 5.6 14 5.6C16.1413 5.6 18.0894 6.4078 19.5727 7.7273L23.5326 3.7674C21.0322 1.4371 17.6876 0 14 0C6.2685 0 0 6.2685 0 14C0 21.7315 6.2685 28 14 28C21.7315 28 28 21.7315 28 14C28 13.0613 27.9034 12.145 27.7277 11.2581Z" fill="#FFC107"/>
<path d="M2 7.58227L6.61682 11C7.86606 7.87801 10.8915 5.67376 14.4319 5.67376C16.5812 5.67376 18.5365 6.4922 20.0254 7.82908L24 3.81702C21.4903 1.45603 18.1332 0 14.4319 0C9.03449 0 4.35373 3.07589 2 7.58227Z" fill="#FF3D00"/>
<path d="M13.9788 28C17.4543 28 20.6123 26.6362 23 24.4184L18.8355 20.8051C17.4392 21.8939 15.733 22.4828 13.9788 22.4814C10.479 22.4814 7.50734 20.1932 6.38784 17L2 20.4664C4.22689 24.9344 8.74928 28 13.9788 28Z" fill="#4CAF50"/>
<path d="M27.7277 11.0573H26.6V11H14V16.5236H21.9121C21.3599 18.0539 20.3653 19.3912 19.0512 20.3701L19.0533 20.3687L23.3863 23.9853C23.0797 24.2601 28 20.6663 28 13.7618C28 12.8359 27.9034 11.9321 27.7277 11.0573Z" fill="#1976D2"/>
</svg>
