<svg id="SvgjsSvg1001" width="288" height="288" xmlns="http://www.w3.org/2000/svg" version="1.1" xmlns:xlink="http://www.w3.org/1999/xlink" xmlns:svgjs="http://svgjs.com/svgjs"><defs id="SvgjsDefs1002"></defs><g id="SvgjsG1008" transform="matrix(1,0,0,1,0,0)"><svg xmlns="http://www.w3.org/2000/svg" width="288" height="288" version="1.0" viewBox="0 0 500 500"><g transform="matrix(.1 0 0 -.1 0 500)" fill="#253e7e" class="color000 svgShape"><path d="M2230 4983 c-242 -26 -592 -126 -820 -235 -93 -44 -273 -150 -332-195 -312 -238 -387 -313 -631 -631 -42 -54 -159 -255 -200 -342 -83 -175
-171 -455 -209 -665 -21 -117 -23 -159 -23 -415 0 -255 3 -299 24 -415 37
-209 125 -490 208 -665 41 -87 158 -288 200 -342 213 -278 316 -386 516 -543
273 -214 515 -336 878 -440 373 -108 811 -119 1210 -30 68 15 275 81 414 132
171 64 378 185 572 338 200 157 303 265 516 543 42 54 159 255 200 342 84 177
176 472 207 664 25 148 43 387 34 441 -8 53 -27 87 -63 118 -65 54 -151 60
-221 14 -56 -38 -77 -91 -85 -217 -19 -325 -86 -601 -206 -843 -21 -44 -39
-84 -39 -90 0 -16 -108 -183 -186 -287 -86 -115 -339 -364 -449 -442 -95 -67
-200 -134 -235 -149 -14 -6 -68 -31 -120 -55 -297 -136 -575 -197 -895 -197
-316 1 -592 62 -885 197 -52 24 -106 49 -120 55 -35 15 -141 82 -235 149 -111
79 -368 334 -455 450 -75 101 -152 219 -171 262 -6 14 -31 68 -55 120 -135
294 -197 576 -197 890 0 317 62 596 197 890 24 52 49 106 55 120 15 35 82 141
149 235 79 111 334 368 450 455 101 75 219 152 262 171 14 6 68 31 120 55 269
123 508 180 830 199 125 8 179 29 217 85 61 93 24 225 -74 266 -31 13 -255 18
-353 7z" fill="#253e7e" class="color000 svgShape"></path><path d="M4646 4355 c-25 -13 -395 -379 -1660 -1640 -221 -220 -461 -458 -533
-528 l-131 -128 -30 43 c-17 24 -93 106 -168 183 -75 77 -178 187 -227 245
-83 97 -197 218 -373 396 -62 63 -77 73 -118 79 -61 10 -124 -14 -166 -62 -38
-43 -50 -72 -50 -123 0 -63 15 -88 128 -209 59 -64 125 -138 146 -164 21 -26
88 -99 150 -162 61 -63 145 -153 186 -200 155 -177 425 -455 454 -467 41 -17
114 -15 150 4 48 25 2460 2430 2480 2473 30 63 31 110 3 167 -35 70 -91 108
-162 108 -27 0 -63 -7 -79 -15z" fill="#253e7e" class="color000 svgShape"></path></g></svg></g></svg>